<svg width="18" height="11" viewBox="0 0 18 11" fill="none" xmlns="http://www.w3.org/2000/svg">
<path d="M0.492839 1.98466C0.493738 2.22039 0.542255 2.45351 0.635479 2.67003C0.728702 2.88655 0.86471 3.082 1.03534 3.24466L8.03534 9.99966C8.36246 10.3203 8.80227 10.4999 9.26034 10.4999C9.71841 10.4999 10.1582 10.3203 10.4853 9.99966L17.4853 2.99966C17.6485 2.83649 17.7779 2.64278 17.8662 2.42959C17.9545 2.21641 18 1.98791 18 1.75716C18 1.52641 17.9545 1.29791 17.8662 1.08472C17.7779 0.871534 17.6485 0.677827 17.4853 0.51466C17.3222 0.351492 17.1285 0.22206 16.9153 0.133755C16.7021 0.0454493 16.4736 -1.84063e-06 16.2428 -1.83054e-06C16.0121 -1.82045e-06 15.7836 0.0454494 15.5704 0.133755C15.3572 0.22206 15.1635 0.351492 15.0003 0.51466L9.24284 6.28966L3.46784 0.72466C3.13995 0.39872 2.69642 0.215773 2.23409 0.215773C1.77176 0.215773 1.32822 0.398721 1.00034 0.72466C0.83604 0.890256 0.706504 1.08703 0.61935 1.30341C0.532196 1.51979 0.489183 1.75142 0.492839 1.98466Z" fill="#304560"/>
</svg>
