<svg width="34" height="34" viewBox="0 0 34 34" fill="none" xmlns="http://www.w3.org/2000/svg">
<path d="M8.49284 20.5151C8.49374 20.2793 8.54226 20.0462 8.63548 19.8297C8.7287 19.6132 8.86471 19.4177 9.03534 19.2551L16.0353 12.5001C16.3625 12.1794 16.8023 11.9998 17.2603 11.9998C17.7184 11.9998 18.1582 12.1794 18.4853 12.5001L25.4853 19.5001C25.6485 19.6632 25.7779 19.8569 25.8662 20.0701C25.9545 20.2833 26 20.5118 26 20.7426C26 20.9733 25.9545 21.2018 25.8662 21.415C25.7779 21.6282 25.6485 21.8219 25.4853 21.9851C25.3222 22.1482 25.1285 22.2777 24.9153 22.366C24.7021 22.4543 24.4736 22.4997 24.2428 22.4997C24.0121 22.4997 23.7836 22.4543 23.5704 22.366C23.3572 22.2777 23.1635 22.1482 23.0003 21.9851L17.2428 16.2101L11.4678 21.7751C11.14 22.101 10.6964 22.284 10.2341 22.284C9.77176 22.284 9.32822 22.101 9.00034 21.7751C8.83604 21.6095 8.7065 21.4127 8.61935 21.1963C8.5322 20.9799 8.48918 20.7483 8.49284 20.5151Z" fill="#2389FF"/>
</svg>
