<svg width="14" height="20" viewBox="0 0 14 20" fill="none" xmlns="http://www.w3.org/2000/svg">
<path d="M6.01588 14.0871C4.46541 13.9254 3.06744 13.5436 1.87055 12.6074C1.72204 12.491 1.56871 12.3787 1.43319 12.2486C0.909312 11.7455 0.856527 11.1693 1.27106 10.5754C1.62569 10.0673 2.22099 9.93131 2.83975 10.2231C2.95956 10.2797 3.07372 10.3502 3.18306 10.4261C5.41367 11.9587 8.47794 12.001 10.7169 10.495C10.9387 10.3249 11.1759 10.1862 11.4507 10.1154C11.985 9.97823 12.4833 10.1745 12.7701 10.642C13.0977 11.176 13.0935 11.6971 12.6899 12.1116C12.0707 12.7472 11.326 13.2069 10.4987 13.5278C9.7163 13.8311 8.85938 13.9838 8.01125 14.0852C8.13924 14.2245 8.19956 14.293 8.27958 14.3735C9.43122 15.5305 10.5879 16.6828 11.7358 17.8435C12.1268 18.2389 12.2085 18.7293 11.9932 19.1893C11.7578 19.692 11.2307 20.0227 10.714 19.9873C10.3866 19.9647 10.1313 19.8018 9.9044 19.5732C9.03533 18.6987 8.14992 17.8403 7.29844 16.9493C7.05064 16.6901 6.93146 16.7392 6.71277 16.9641C5.83846 17.8642 4.94991 18.7505 4.05612 19.6317C3.65478 20.0274 3.1772 20.0986 2.71177 19.8726C2.21701 19.6327 1.90218 19.1277 1.92648 18.6202C1.94324 18.2768 2.11206 18.0146 2.34771 17.7794C3.48742 16.6413 4.62398 15.5004 5.76096 14.3605C5.83616 14.2846 5.90633 14.2042 6.01588 14.0871Z" fill="#304560"/>
<path d="M6.96043 10.123C4.19443 10.1135 1.92634 7.82051 1.94247 5.05011C1.95839 2.24914 4.22795 -0.00806603 7.02117 -0.000315795C9.82005 0.00722497 12.0666 2.2969 12.0525 5.12699C12.0383 7.89173 9.75449 10.1326 6.96043 10.123ZM9.47422 5.05682C9.46941 3.68125 8.3739 2.58617 7.00106 2.58491C5.61671 2.58344 4.51136 3.69843 4.52204 5.08656C4.5323 6.45688 5.63723 7.54422 7.01384 7.53919C8.38626 7.53438 9.47883 6.43217 9.47422 5.05682Z" fill="#304560"/>
</svg>
