<svg width="20" height="12" viewBox="0 0 20 12" fill="none" xmlns="http://www.w3.org/2000/svg">
<path d="M19.8215 10.4726C19.7677 10.3826 19.4352 9.66002 17.8351 8.17491C16.16 6.6198 16.385 6.87232 18.4026 4.18337C19.6315 2.54574 20.1228 1.54567 19.969 1.11814C19.8227 0.710607 18.9189 0.818115 18.9189 0.818115L15.9137 0.835616C15.9137 0.835616 15.6912 0.805614 15.5249 0.904371C15.3637 1.00188 15.2599 1.2269 15.2599 1.2269C15.2599 1.2269 14.7836 2.49449 14.1486 3.57207C12.8097 5.84599 12.2734 5.966 12.0547 5.82474C11.5459 5.49596 11.6734 4.50214 11.6734 3.79709C11.6734 1.59317 12.0072 0.674354 11.0221 0.436836C10.6946 0.358081 10.4545 0.305577 9.61824 0.296826C8.54566 0.285575 7.63684 0.300576 7.12305 0.551845C6.78053 0.719357 6.51676 1.09314 6.67802 1.11439C6.87679 1.14064 7.32682 1.23565 7.56559 1.56067C7.87436 1.97945 7.86311 2.92202 7.86311 2.92202C7.86311 2.92202 8.04062 5.51596 7.44933 5.83849C7.04305 6.05975 6.48676 5.60847 5.29292 3.54457C4.68163 2.48824 4.21909 1.3194 4.21909 1.3194C4.21909 1.3194 4.13034 1.10189 3.97158 0.985627C3.77906 0.844367 3.50904 0.799364 3.50904 0.799364L0.651333 0.816865C0.651333 0.816865 0.222551 0.829366 0.0650397 1.01563C-0.0749705 1.18189 0.0537889 1.52442 0.0537889 1.52442C0.0537889 1.52442 2.29145 6.75856 4.82414 9.3975C7.14806 11.8164 9.78575 11.6577 9.78575 11.6577H10.9808C10.9808 11.6577 11.3421 11.6177 11.5259 11.4189C11.6959 11.2364 11.6896 10.8939 11.6896 10.8939C11.6896 10.8939 11.6659 9.29 12.4109 9.05373C13.1447 8.82121 14.0873 10.6038 15.0861 11.2901C15.8412 11.8089 16.415 11.6952 16.415 11.6952L19.0864 11.6577C19.0864 11.6577 20.484 11.5714 19.8215 10.4726Z" fill="#304560"/>
</svg>
